{"title":"The.Haunting.Of.Bryan.Becket.2009.BRRIP.720P.H264-ZEKTORM","uid":6162918,"size":2202319000,"categoryP":"video","categoryS":"hd___movies","magnet":"?xt=urn:btih:7848e84b7935f3340d23d42d226998314c7f0d5e&amp;dn=The.Haunting.Of.Bryan.Becket.2009.BRRIP.720P.H264-ZEKTORM&amp;tr=udp%3A%2F%2Ftracker.openbittorrent.com%3A80&amp;tr=udp%3A%2F%2Fopen.demonii.com%3A1337&amp;tr=udp%3A%2F%2Ftracker.coppersurfer.tk%3A6969&amp;tr=udp%3A%2F%2Fexodus.desync.com%3A6969","seeders":0,"leechers":1,"uploader":"blowley","files":3,"time":1297277244,"description":"Title                            : The Skeptic\nAlso Known As                    : The Haunting of Bryan Becket\nYear                             : 2009\nGenre                            : Horror | Thriller\niMDB URL                         : http://www.imdb.com/title/tt0493451/\n\nComplete name                    : The.Haunting.Of.Bryan.Becket.2009.BRRIP.720P.H264-ZEKTORM.mp4\nFormat                           : MPEG-4\nFormat profile                   : Base Media\nCodec ID                         : isom\nFile size                        : 2.05 GiB\nDuration                         : 1h 28mn\nOverall bit rate                 : 3307 Kbps\n\nVideo\nID                               : 1\nFormat                           : AVC\nFormat/Info                      : Advanced Video Codec\nFormat profile                   : &lt;a class=&quot;__cf_email__&quot; href=&quot;/cdn-cgi/l/email-protection&quot; data-cfemail=&quot;5d15343a351d1169736d&quot;&gt;[email&amp;#160;protected]&lt;/a&gt;&lt;script cf-hash='f9e31' type=&quot;text/javascript&quot;&gt;\n/* &lt;![CDATA[ */!function(){try{var t=&quot;currentScript&quot;in document?document.currentScript:function(){for(var t=document.getElementsByTagName(&quot;script&quot;),e=t.length;e--;)if(t[e].getAttribute(&quot;cf-hash&quot;))return t[e]}();if(t&amp;&amp;t.previousSibling){var e,r,n,i,c=t.previousSibling,a=c.getAttribute(&quot;data-cfemail&quot;);if(a){for(e=&quot;&quot;,r=parseInt(a.substr(0,2),16),n=2;a.length-n;n+=2)i=parseInt(a.substr(n,2),16)^r,e+=String.fromCharCode(i);e=document.createTextNode(e),c.parentNode.replaceChild(e,c)}}}catch(u){}}();/* ]]&gt; */&lt;/script&gt;\nFormat settings, CABAC           : Yes\nFormat settings, ReFrames        : 8 frames\nCodec ID                         : avc1\nCodec ID/Info                    : Advanced Video Coding\nDuration                         : 1h 28mn\nBit rate mode                    : Variable\nBit rate                         : 3123 Kbps\nMaximum bit rate                 : 22.7 Mbps\nWidth                            : 1280 pixels\nHeight                           : 720 pixels\nDisplay aspect ratio             : 16/9\nFrame rate mode                  : Constant\nFrame rate                       : 23.976 fps\nResolution                       : 24 bits\nColorimetry                      : 4:2:0\nScan type                        : Progressive\nBits/(Pixel*Frame)               : 0.141\nStream size                      : 1.94 GiB (94%)\nTitle                            : Video\nWriting library                  : x264\n\nAudio\nID                               : 2\nFormat                           : AAC\nFormat/Info                      : Advanced Audio Codec\nFormat version                   : Version 4\nFormat profile                   : LC\nFormat settings, SBR             : Yes\nFormat settings, PS              : No\nCodec ID                         : 40\nDuration                         : 1h 28mn\nBit rate mode                    : Variable\nBit rate                         : 180 Kbps\nMaximum bit rate                 : 245 Kbps\nChannel(s)                       : 6 channels\nChannel positions                : Front: L C R, Rear: L R, LFE\nSampling rate                    : 48.0 KHz\nResolution                       : 16 bits\nStream size                      : 115 MiB (5%)\nLanguage                         : English\n\n\n\nScreenshots:\n &lt;a href=&quot;\nhttp://img714.imageshack.us/img714/592/snapth1.png&quot; rel=&quot;nofollow&quot; target=&quot;_NEW&quot;&gt;\nhttp://img714.imageshack.us/img714/592/snapth1.png&lt;/a&gt;\n &lt;a href=&quot;\nhttp://img153.imageshack.us/img153/7198/snapth2.png&quot; rel=&quot;nofollow&quot; target=&quot;_NEW&quot;&gt;\nhttp://img153.imageshack.us/img153/7198/snapth2.png&lt;/a&gt;\n &lt;a href=&quot;\nhttp://img715.imageshack.us/img715/3554/snapth3.png&quot; rel=&quot;nofollow&quot; target=&quot;_NEW&quot;&gt;\nhttp://img715.imageshack.us/img715/3554/snapth3.png&lt;/a&gt;\n &lt;a href=&quot;\nhttp://img28.imageshack.us/img28/2403/snapth4.png&quot; rel=&quot;nofollow&quot; target=&quot;_NEW&quot;&gt;\nhttp://img28.imageshack.us/img28/2403/snapth4.png&lt;/a&gt;\n","torrent":{"xt":"urn:btih:7848e84b7935f3340d23d42d226998314c7f0d5e","amp;dn":"The.Haunting.Of.Bryan.Becket.2009.BRRIP.720P.H264-ZEKTORM","amp;tr":["udp%3A%2F%2Ftracker.openbittorrent.com%3A80","udp%3A%2F%2Fopen.demonii.com%3A1337","udp%3A%2F%2Ftracker.coppersurfer.tk%3A6969","udp%3A%2F%2Fexodus.desync.com%3A6969"],"infoHash":"7848e84b7935f3340d23d42d226998314c7f0d5e","infoHashBuffer":{"type":"Buffer","data":[120,72,232,75,121,53,243,52,13,35,212,45,34,105,152,49,76,127,13,94]},"announce":[],"urlList":[]}}